# xmcd CD database file
#
# Track frame offsets:
#	150
#	25821
#	46317
#	70257
#	87354
#	105423
#	134022
#	158983
#	184851
#	213688
#	241028
#	259598
#	275947
#
# Disc length: 3906 seconds
#
# Revision: 0
# Processed by: cddbd v1.5.1PL2 Copyright (c) Steve Scherf et al.
# Submitted via: CDex 1.51
#
DISCID=bd0f400d
DTITLE=Henning Wolter Quartett feat. Andrea Kaiser - Illusion
DYEAR=2005
DGENRE=Jazz
TTITLE0=Comes love
TTITLE1=I don't know
TTITLE2=My little sad Lucie
TTITLE3=Depressions
TTITLE4=Illusion
TTITLE5=Out of Africa
TTITLE6=Afro Blue
TTITLE7=The nearness of you
TTITLE8=Dancing
TTITLE9=Thelma and Louise
TTITLE10=So in love
TTITLE11=Infant eyes
TTITLE12=Illusion - rock version
EXTD=YEAR: 2005
EXTT0=
EXTT1=
EXTT2=
EXTT3=
EXTT4=
EXTT5=
EXTT6=
EXTT7=
EXTT8=
EXTT9=
EXTT10=
EXTT11=
EXTT12=
PLAYORDER=
